# xmcd
#
# Track frame offsets: 
#        150
#        37942
#        111904
#
# Disc length: 2662 seconds
#
# Revision: 0
# Processed by: cddbd v1.5.2PL0 Copyright (c) Steve Scherf et al.
# Submitted via: ExactAudioCopy v0.99pb3
#
DISCID=1c0a6403
DTITLE=Century Plants - Circular Spaces, volume 1
DYEAR=2010
DGENRE=Ambient
TTITLE0=Bak into the Bloom
TTITLE1=Step into the Breeze
TTITLE2=Circular Spaces
EXTD=
EXTT0=
EXTT1=
EXTT2=
PLAYORDER=
